HIERARCHY
ROOT root
{
	OFFSET	0	13.1	24.9
	CHANNELS 6  Xposition Yposition Zposition Xrotation Yrotation Zrotation
	JOINT spine_1
	{
		OFFSET	0	9.99999	0
		CHANNELS 3  Xrotation Yrotation Zrotation
		JOINT spine_2
		{
			OFFSET	0	112	-10
			CHANNELS 3  Xrotation Yrotation Zrotation
			JOINT spine_3
			{
				OFFSET	0	206.5	19.3
				CHANNELS 3  Xrotation Yrotation Zrotation
				JOINT spine_4
				{
					OFFSET	0	110.4	14.6
					CHANNELS 3  Xrotation Yrotation Zrotation
					JOINT neck_1
					{
						OFFSET	0	71.8	-50.3
						CHANNELS 3  Xrotation Yrotation Zrotation
						JOINT neck_2
						{
							OFFSET	0	86.2	-25.8
							CHANNELS 3  Xrotation Yrotation Zrotation
							JOINT head_ee
							{
								OFFSET	0	179.8	-8.7
								CHANNELS 3  Xrotation Yrotation Zrotation
								End Site
								{
									OFFSET	1	0	0
								}
							}
						}
					}
					JOINT left_clavicle
					{
						OFFSET	-43.2	22.4	-70.8
						CHANNELS 3  Xrotation Yrotation Zrotation
						JOINT left_shoulder
						{
							OFFSET	-93.9	-5.79999	48.7
							CHANNELS 3  Xrotation Yrotation Zrotation
							JOINT left_elbow
							{
								OFFSET	-291.4	-30.8	15.2
								CHANNELS 3  Xrotation Yrotation Zrotation
								JOINT left_lowarm_twist
								{
									OFFSET	-110.7	-3.89999	13.6
									CHANNELS 3  Xrotation Yrotation Zrotation
									JOINT left_hand
									{
										OFFSET	-110.7	-3.89999	13.6
										CHANNELS 3  Xrotation Yrotation Zrotation
										JOINT left_ee
										{
											OFFSET	-80.8	-5.10001	12.1
											CHANNELS 3  Xrotation Yrotation Zrotation
											End Site
											{
												OFFSET	1	0	0
											}
										}
									}
								}
							}
						}
					}
					JOINT right_clavicle
					{
						OFFSET	43.2	22.4	-70.8
						CHANNELS 3  Xrotation Yrotation Zrotation
						JOINT right_shoulder
						{
							OFFSET	93.9	-5.79999	48.7
							CHANNELS 3  Xrotation Yrotation Zrotation
							JOINT right_elbow
							{
								OFFSET	291.4	-30.8	15.2
								CHANNELS 3  Xrotation Yrotation Zrotation
								JOINT right_lowarm_twist
								{
									OFFSET	110.7	-3.89999	13.6
									CHANNELS 3  Xrotation Yrotation Zrotation
									JOINT right_hand
									{
										OFFSET	110.7	-3.89999	13.6
										CHANNELS 3  Xrotation Yrotation Zrotation
										JOINT right_ee
										{
											OFFSET	80.8	-5.10001	12.1
											CHANNELS 3  Xrotation Yrotation Zrotation
											End Site
											{
												OFFSET	1	0	0
											}
										}
									}
								}
							}
						}
					}
				}
			}
		}
	}
	JOINT left_hip
	{
		OFFSET	-82.8	-127.5	0.300001
		CHANNELS 3  Xrotation Yrotation Zrotation
		JOINT left_knee
		{
			OFFSET	-28.2	-396.7	2.2
			CHANNELS 3  Xrotation Yrotation Zrotation
			JOINT left_ankle
			{
				OFFSET	-11.7	-411.3	35.4
				CHANNELS 3  Xrotation Yrotation Zrotation
				JOINT left_toes
				{
					OFFSET	0	-60	-88.6
					CHANNELS 3  Xrotation Yrotation Zrotation
					JOINT left_foot_ee
					{
						OFFSET	-22.5	-16.5	-42.2
						CHANNELS 3  Xrotation Yrotation Zrotation
						End Site
						{
							OFFSET	1	0	0
						}
					}
				}
			}
		}
	}
	JOINT right_hip
	{
		OFFSET	82.8	-127.5	0.300001
		CHANNELS 3  Xrotation Yrotation Zrotation
		JOINT right_knee
		{
			OFFSET	28.2	-396.7	2.2
			CHANNELS 3  Xrotation Yrotation Zrotation
			JOINT right_ankle
			{
				OFFSET	11.7	-411.3	35.4
				CHANNELS 3  Xrotation Yrotation Zrotation
				JOINT right_toes
				{
					OFFSET	0	-60	-88.6
					CHANNELS 3  Xrotation Yrotation Zrotation
					JOINT right_foot_ee
					{
						OFFSET	22.5	-16.5	-42.2
						CHANNELS 3  Xrotation Yrotation Zrotation
						End Site
						{
							OFFSET	1	0	0
						}
					}
				}
			}
		}
	}
}
MOTION
Frames: 9
Frame Time: 0.02
2200.22 667.47 -559.718 85.0769 -84.4977 88.4741 -2.95963 -0.158749 -1.69621 -2.95803 -0.0505091 -1.70287 -2.95458 0.394575 -1.65731 -2.95839 0.127922 -1.69881 -5.07432 7.87414 8.19058 -4.89501 8.32588 9.68556 -0.0 0.0 -0.0 0.470326 6.86898 1.65901 -22.7556 -35.5259 79.1903 0.196196 -5.55127 0.00951192 -6.18412 -0.2585 0.746698 4.89335 30.153 42.1494 -0.0 0.0 -0.0 2.60848 9.91357 -4.22528 39.8322 21.6731 -68.7908 3.34251 58.8566 -1.88595 6.6415 -0.186211 0.827457 1.80214 0.557591 -11.9063 0.0 0.0 0.0 25.2026 1.60957 -3.02189 2.989 -0.134577 -0.438839 -7.92276 12.8611 1.18079 -20.3618 0.0 0.0 -0.0 0.0 -0.0 -30.1647 19.9161 -7.72429 -1.52342 -0.0597224 -0.226157 40.3851 -1.96736 4.89739 -36.0484 0.0 0.0 0.0 0.0 0.0 
2221.88 662.868 -567.204 86.6798 -85.0355 90.2972 -2.83279 -0.0673522 -1.80701 -2.83098 0.0477499 -1.80763 -2.8305 0.513023 -1.73399 -2.83462 0.23278 -1.79322 -5.34109 7.44435 8.45968 -5.15115 7.38215 9.89202 -0.0 0.0 -0.0 0.822808 6.61632 2.26534 -22.7694 -35.8673 78.7231 0.219528 -6.20654 0.0119018 -5.81705 -0.240915 0.703179 4.96237 29.8164 42.6882 -0.0 0.0 -0.0 0.903831 10.089 -0.678676 39.2017 22.2836 -68.6852 3.44035 59.5826 -1.97001 6.25988 -0.178121 0.77938 1.81052 -0.188896 -12.263 0.0 0.0 0.0 25.888 1.63383 -2.8257 0.429776 -0.0179356 -0.0635132 -8.97843 13.209 1.34083 -20.3566 0.0 0.0 -0.0 0.0 -0.0 -30.6967 20.1524 -7.13051 -1.69701 -0.0661444 -0.252022 40.2575 -3.3105 4.88195 -36.4697 0.0 0.0 0.0 0.0 0.0 
2239.09 662.84 -571.198 87.6269 -85.3003 91.5784 -2.65769 -0.0228425 -1.97403 -2.65553 0.102791 -1.97148 -2.65688 0.602881 -1.87988 -2.66169 0.298482 -1.95147 -5.43791 7.13876 8.05899 -5.2657 7.13838 9.43577 -0.0 0.0 -0.0 1.23234 5.74729 2.92125 -21.8189 -35.9598 78.3356 0.197734 -5.5945 0.00966125 -6.14498 -0.256612 0.742063 4.78063 30.6883 41.2857 -0.0 0.0 -0.0 -0.681133 9.675 2.55982 38.0956 21.5917 -70.2737 3.43477 59.542 -1.9652 6.03103 -0.173115 0.750575 1.73443 -1.12414 -12.1155 0.0 0.0 0.0 26.2421 1.63111 -2.49094 -2.24195 0.0857963 0.333346 -7.41658 14.9024 1.1081 -18.787 0.0 0.0 -0.0 0.0 -0.0 -31.0807 20.381 -6.99147 -1.5829 -0.0619316 -0.235016 38.9521 -3.00773 4.76907 -37.0672 0.0 0.0 0.0 0.0 0.0 
2261.29 664.162 -576.631 110.904 -84.7645 115.952 -2.60959 0.0479877 -1.91986 -2.60755 0.170034 -1.91292 -2.61132 0.65152 -1.80661 -2.6157 0.358078 -1.8868 -5.60721 6.70692 8.05414 -5.43535 6.37577 9.35861 -0.0 0.0 -0.0 1.61962 6.25958 3.66799 -22.1577 -36.4461 77.4728 0.258716 -7.30341 0.0165115 -5.93753 -0.246656 0.717476 4.68863 30.3681 40.5852 -0.0 0.0 -0.0 0.319706 10.4429 0.572675 36.7096 22.599 -70.0029 3.22264 57.9237 -1.78386 4.08774 -0.125983 0.506823 1.65864 -1.67337 -11.8166 0.0 0.0 0.0 26.4312 0.767037 -4.72378 -5.22247 0.179521 0.781113 -4.8402 13.1805 0.717955 -21.2535 0.0 0.0 -0.0 0.0 -0.0 -31.998 20.4816 -6.57238 -1.72907 -0.067322 -0.256801 36.4808 -4.40464 4.54064 -36.2077 0.0 0.0 0.0 0.0 0.0 
2286.24 665.543 -580.856 116.722 -84.519 122.416 -2.48843 -0.119055 -1.876 -2.48647 0.000539692 -1.87978 -2.48442 0.475059 -1.81878 -2.48899 0.181908 -1.87096 -5.92657 5.42979 7.24326 -5.78706 4.67469 8.3153 -0.0 0.0 -0.0 2.18801 8.55715 4.85766 -23.1073 -38.6387 75.0553 0.296916 -8.36746 0.0217194 -6.73242 -0.285288 0.811495 4.27125 30.8532 37.5547 -0.0 0.0 -0.0 -0.638843 10.5272 2.57839 35.0223 22.5353 -71.3053 3.0887 56.8205 -1.67106 3.55193 -0.111535 0.439903 1.58975 -1.91998 -11.4459 0.0 0.0 0.0 25.2134 0.357247 -5.61185 -7.50041 0.23537 1.12621 4.50879 12.8852 -0.654265 -21.8722 0.0 0.0 -0.0 0.0 -0.0 -30.9687 20.2606 -6.99144 -4.49782 -0.158881 -0.671819 31.8207 -6.60711 4.07984 -35.5 0.0 0.0 0.0 0.0 0.0 
2314.85 670.839 -583.415 127.497 -83.8861 134.225 -2.61106 -0.105047 -1.83497 -2.60919 0.0119101 -1.83794 -2.60756 0.479313 -1.7744 -2.6119 0.193114 -1.82781 -5.89101 5.43265 7.80816 -5.72811 4.25381 8.88558 -0.0 0.0 -0.0 2.2224 8.07283 4.88489 -20.7469 -37.2825 75.4043 0.351816 -9.88638 0.0304285 -6.59809 -0.278668 0.795643 3.60516 30.4399 32.9712 -0.0 0.0 -0.0 -1.21551 10.5223 3.78201 31.3695 22.6727 -71.7256 3.31231 58.6263 -1.86014 3.67136 -0.11481 0.454808 1.67071 0.744271 -10.9332 0.0 0.0 0.0 23.5396 0.403304 -6.59916 -8.47659 0.255094 1.27471 10.3544 14.9458 -1.48125 -22.0522 0.0 0.0 -0.0 0.0 -0.0 -30.1212 19.9981 -7.15242 -5.83046 -0.19577 -0.873003 28.8506 -6.26057 3.76395 -35.9145 0.0 0.0 0.0 0.0 0.0 
2335.9 675.806 -589.105 134.261 -83.5376 141.75 -2.62703 -0.219287 -1.98149 -2.62485 -0.0927804 -1.99142 -2.61908 0.4175 -1.94939 -2.62437 0.104454 -1.99084 -5.36987 5.13066 7.43571 -5.22214 3.8897 8.45456 -0.0 0.0 -0.0 2.6138 9.16151 5.64285 -19.8215 -38.6921 73.8791 0.425343 -11.8985 0.0443247 -7.33477 -0.315432 0.882383 3.2344 30.2629 30.5388 -0.0 0.0 -0.0 -1.28603 11.4943 4.05712 28.9322 22.4335 -72.1865 3.19117 57.6704 -1.75723 1.50987 -0.0507465 0.186158 1.6716 0.700895 -10.9568 0.0 0.0 0.0 22.172 -0.0919895 -7.48422 -9.24965 0.268917 1.39252 15.194 14.5759 -2.13417 -23.9112 0.0 0.0 -0.0 0.0 -0.0 -29.482 19.8761 -7.08543 -7.5887 -0.237258 -1.13962 26.9713 -6.11605 3.55586 -36.1738 0.0 0.0 0.0 0.0 0.0 
2355.63 680.824 -593.14 136.725 -82.8371 144.808 -2.77899 -0.253555 -2.04354 -2.77667 -0.123033 -2.05552 -2.76941 0.409863 -2.01802 -2.77508 0.0860819 -2.0574 -4.60386 4.90765 6.84787 -4.479 3.80664 7.81913 -0.0 0.0 -0.0 2.89719 9.96877 6.18009 -18.9415 -39.8921 72.6732 0.52861 -14.6741 0.0680641 -7.74427 -0.33635 0.930394 2.92026 30.133 28.5336 -0.0 0.0 -0.0 -2.12817 12.1626 5.92491 26.6897 22.4885 -72.8796 3.01458 56.1806 -1.60925 0.2562 -0.00895674 0.0314942 1.64131 1.23529 -10.5339 0.0 0.0 0.0 21.1322 -0.189928 -8.19464 -10.9204 0.29335 1.64771 19.3667 17.2016 -2.69286 -23.8749 0.0 0.0 -0.0 0.0 -0.0 -27.9051 19.6605 -7.74109 -8.77547 -0.260627 -1.32024 24.7905 -7.00964 3.30645 -36.448 0.0 0.0 0.0 0.0 0.0 
2381.11 690.748 -597.512 137.253 -82.8805 146.094 -2.69009 -0.433363 -2.16677 -2.68752 -0.294641 -2.18994 -2.67282 0.274816 -2.19252 -2.67952 -0.0748128 -2.2084 -4.22845 4.41579 6.70286 -4.10852 2.96131 7.59349 -0.0 0.0 -0.0 3.45549 10.332 7.16176 -17.7266 -40.7604 71.1937 0.512999 -14.2586 0.0641645 -7.86643 -0.342657 0.944689 2.61762 29.881 26.6199 -0.0 0.0 -0.0 -1.62716 12.9702 4.97181 22.0379 22.791 -72.6242 2.80276 54.2266 -1.43528 -1.18649 0.0433134 -0.145326 1.77554 1.92954 -11.168 0.0 0.0 0.0 19.3319 0.063639 -8.29605 -11.7815 0.303035 1.77948 22.3316 19.4886 -3.08936 -23.8632 0.0 0.0 -0.0 0.0 -0.0 -25.1859 19.5621 -9.01569 -9.88467 -0.279081 -1.48944 24.9861 -6.92917 3.32913 -35.9286 0.0 0.0 0.0 0.0 0.0 
